<svg width="50" height="50" viewBox="0 0 50 50" fill="none" xmlns="http://www.w3.org/2000/svg">
<rect width="50" height="50" rx="8" fill="#8B5CF6"/>
<rect x="7" y="14" width="22" height="16" fill="white"/>
<path d="M10.3498 12.7248H39.0242C39.3551 13.0433 40.0567 13.7211 40.3199 14.0456L40.3047 14.0663C39.834 14.7181 38.9265 15.5294 38.3677 16.1928C39.2176 16.8851 40.2014 17.9658 41.0366 18.566L42.5999 18.5632C44.1945 18.5622 44.8299 18.7933 44.8442 20.5168L44.8477 33.2643C44.8477 36.0137 45.2172 36.6185 42.0512 36.6194L39.8032 36.6182L11.3695 36.6187C10.7181 36.6185 10.2083 35.9557 9.8081 35.4729C9.42782 35.0143 11.1608 33.6603 11.5057 33.1902C10.9716 32.4449 9.80605 31.4927 9.11587 30.8006C7.42234 30.8006 5.16671 31.1785 5.15244 28.7847L5.15308 16.1855C5.14197 13.1976 5.5561 12.7221 8.60454 12.7229L10.3498 12.7248ZM8.98063 18.4618V24.9757C11.6281 25.2171 12.6761 26.9807 12.9617 29.3983H21.9788L22.082 29.4027C22.1309 29.3385 22.1093 29.15 22.1119 29.053C22.1722 26.8736 23.7251 25.0971 25.9755 25.1218L25.9763 20.7552C25.9764 20.0581 25.9977 19.2533 25.9755 18.566C25.6312 18.4667 25.2386 18.3942 24.9187 18.2879C23.0734 17.6739 22.1525 16.0009 22.1333 14.14H12.9617C12.9711 16.5109 11.4065 18.2756 8.98063 18.4618Z" fill="#323332"/>
<path d="M29.9082 14.14H38.3677C37.784 14.6422 36.8651 15.6206 36.3459 16.1928C37.2278 17.0928 38.3345 18.0117 39.2594 18.8841C39.5255 19.135 40.2074 19.8048 40.4465 19.975C41.0793 19.9953 42.8025 19.8822 43.3293 20.0305C43.4786 20.1842 43.4265 21.9 43.4265 22.1869L43.426 35.1955H24.7742H11.5057C11.8452 34.814 13.6461 33.3677 13.2652 32.9099C12.6351 32.1526 11.7936 31.494 11.1005 30.8006L26.3166 30.8017C26.9085 30.8018 27.5961 30.8282 28.1812 30.7587C29.8854 30.5563 29.9091 28.938 29.909 27.6926L29.9082 14.14Z" fill="#E9D5FF"/>
<path d="M33.7157 21.9023H39.9335V23.3669H33.7157V21.9023Z" fill="#323332"/>
<path d="M39.6246 28.4408H39.9335V29.8822H34.0454H33.7157V28.4408H39.6246Z" fill="#323332"/>
<path d="M33.7157 31.7592H39.9335C39.9332 31.9245 39.9569 33.1417 39.9335 33.1902H33.7157V31.7592Z" fill="#323332"/>
<path d="M38.7964 25.2159H39.9335V26.635H34.8755H33.7157V25.2159H38.7964Z" fill="#323332"/>
<path d="M31.8901 28.4408H32.1745V29.8822H30.9754H30.7285V28.4408H31.8901Z" fill="#323332"/>
<path d="M30.7285 31.7592H32.1745C32.1765 32.2286 32.1861 32.7226 32.1745 33.1902H30.7285V31.7592Z" fill="#323332"/>
<path d="M30.7285 25.2159H32.1745V26.635H30.7285V25.2159Z" fill="#323332"/>
<path d="M30.7285 16.072H32.1745V17.4798H30.7285V16.072Z" fill="#323332"/>
<path d="M30.7285 19.0415H32.1745V20.4354H30.7285V19.0415Z" fill="#323332"/>
<path d="M30.7285 21.9835H32.1745V23.3669H30.7285V21.9835Z" fill="#323332"/>
<path d="M23.5871 14.14H28.4915L28.4927 27.1659C28.4931 29.0886 28.8895 29.3995 26.7615 29.3996L24.6878 29.3983C24.1666 29.3985 23.4506 29.5216 23.5603 28.7496C23.9664 25.8908 26.5114 26.8559 27.1087 26.3813C27.5261 26.0497 27.3693 25.0138 27.3694 24.5399L27.3695 19.2434C27.3696 17.7598 27.7572 17.3016 26.1569 17.1527C24.5549 17.0036 23.4507 15.7609 23.5871 14.14Z" fill="#E9D5FF"/>
<path d="M8.13775 14.14H11.5962C11.3556 17.8036 8.09617 16.7474 7.69521 17.2989C7.50259 17.8403 7.57213 19.3168 7.57219 19.8266L7.57166 25.2663C7.57135 25.4809 7.54719 25.9139 7.57239 26.1046C8.37555 26.7411 9.62715 25.7897 10.967 27.5367C11.4054 28.1019 11.4525 28.7193 11.5056 29.3983L8.61042 29.3998C6.2358 29.4001 6.56153 29.5763 6.56518 27.3517L6.55282 14.9807C6.55206 13.9775 7.41316 14.1359 8.13775 14.14Z" fill="#E9D5FF"/>
<path d="M17.9834 19.6455C18.1172 20.0574 18.5015 20.3368 18.9346 20.3369H22.1182L19.543 22.208C19.1925 22.4626 19.0458 22.9142 19.1797 23.3262L20.1631 26.3545L17.5879 24.4824C17.2374 24.2279 16.7626 24.2279 16.4121 24.4824L13.8369 26.3545L14.8203 23.3262C14.9542 22.9142 14.8075 22.4626 14.457 22.208L11.8818 20.3369H15.0654C15.4985 20.3368 15.8828 20.0574 16.0166 19.6455L17 16.6182L17.9834 19.6455Z" stroke="#323332"/>
</svg>
