<?xml version="1.0" encoding="utf-8" ?><svg xmlns="http://www.w3.org/2000/svg" xmlns:xlink="http://www.w3.org/1999/xlink" width="50" height="50" viewBox="0 0 50 50"><path fill="#8B5CF6" transform="matrix(0.0976562 0 0 0.0976562 7.62939e-06 9.53674e-07)" d="M105.982 130.302L399.608 130.302C402.997 133.564 410.181 140.504 412.876 143.827L412.72 144.039C407.9 150.714 398.608 159.021 392.885 165.814C401.588 172.904 411.663 183.97 420.215 190.116L436.223 190.087C452.552 190.077 459.058 192.444 459.205 210.092L459.241 340.627C459.241 368.781 463.024 374.974 430.605 374.983L407.585 374.971L116.424 374.976C109.753 374.974 104.533 368.187 100.435 363.243C96.541 358.547 114.287 344.682 117.818 339.868C112.349 332.236 100.414 322.486 93.3466 315.398C76.0048 315.398 52.9072 319.268 52.761 294.756L52.7676 165.74C52.6538 135.144 56.8945 130.274 88.1106 130.283L105.982 130.302ZM91.9617 189.049L91.9617 255.751C119.072 258.223 129.803 276.283 132.728 301.039L225.063 301.039L226.12 301.084C226.621 300.427 226.399 298.496 226.426 297.503C227.044 275.186 242.945 256.995 265.989 257.248L265.997 212.533C265.998 205.395 266.217 197.154 265.989 190.116C262.464 189.099 258.443 188.357 255.168 187.268C236.272 180.981 226.842 163.849 226.645 144.794L132.728 144.794C132.824 169.072 116.803 187.142 91.9617 189.049Z"/><path fill="#E9D5FF" transform="matrix(0.0976562 0 0 0.0976562 7.62939e-06 9.53674e-07)" d="M306.26 144.794L392.885 144.794C386.908 149.936 377.499 159.955 372.182 165.814C381.213 175.03 392.545 184.44 402.016 193.373C404.741 195.943 411.724 202.801 414.172 204.544C420.652 204.752 438.298 203.594 443.692 205.112C445.221 206.686 444.688 224.256 444.688 227.194L444.682 360.402L253.688 360.402L117.818 360.402C121.295 356.496 139.736 341.685 135.836 336.998C129.383 329.243 120.766 322.499 113.669 315.398L269.482 315.41C275.543 315.411 282.584 315.681 288.576 314.969C306.027 312.897 306.269 296.325 306.268 283.572L306.26 144.794Z"/><path fill="#8B5CF6" transform="matrix(0.0976562 0 0 0.0976562 7.62939e-06 9.53674e-07)" d="M345.249 224.28L408.919 224.28L408.919 239.277L345.249 239.277L345.249 224.28Z"/><path fill="#8B5CF6" transform="matrix(0.0976562 0 0 0.0976562 7.62939e-06 9.53674e-07)" d="M405.756 291.234L408.919 291.234L408.919 305.994L348.625 305.994L345.249 305.994L345.249 291.234L405.756 291.234Z"/><path fill="#8B5CF6" transform="matrix(0.0976562 0 0 0.0976562 7.62939e-06 9.53674e-07)" d="M345.249 325.214L408.919 325.214C408.916 326.907 409.159 339.371 408.919 339.868L345.249 339.868L345.249 325.214Z"/><path fill="#8B5CF6" transform="matrix(0.0976562 0 0 0.0976562 7.62939e-06 9.53674e-07)" d="M397.275 258.211L408.919 258.211L408.919 272.742L357.125 272.742L345.249 272.742L345.249 258.211L397.275 258.211Z"/><path fill="#8B5CF6" transform="matrix(0.0976562 0 0 0.0976562 7.62939e-06 9.53674e-07)" d="M326.555 291.234L329.467 291.234L329.467 305.994L317.188 305.994L314.66 305.994L314.66 291.234L326.555 291.234Z"/><path fill="#8B5CF6" transform="matrix(0.0976562 0 0 0.0976562 7.62939e-06 9.53674e-07)" d="M314.66 325.214L329.467 325.214C329.487 330.021 329.586 335.08 329.467 339.868L314.66 339.868L314.66 325.214Z"/><path fill="#8B5CF6" transform="matrix(0.0976562 0 0 0.0976562 7.62939e-06 9.53674e-07)" d="M314.66 258.211L329.467 258.211L329.467 272.742L314.66 272.742L314.66 258.211Z"/><path fill="#8B5CF6" transform="matrix(0.0976562 0 0 0.0976562 7.62939e-06 9.53674e-07)" d="M314.66 164.577L329.467 164.577L329.467 178.993L314.66 178.993L314.66 164.577Z"/><path fill="#8B5CF6" transform="matrix(0.0976562 0 0 0.0976562 7.62939e-06 9.53674e-07)" d="M314.66 194.985L329.467 194.985L329.467 209.259L314.66 209.259L314.66 194.985Z"/><path fill="#8B5CF6" transform="matrix(0.0976562 0 0 0.0976562 7.62939e-06 9.53674e-07)" d="M314.66 225.111L329.467 225.111L329.467 239.277L314.66 239.277L314.66 225.111Z"/><path fill="#8B5CF6" transform="matrix(0.0976562 0 0 0.0976562 7.62939e-06 9.53674e-07)" d="M177.983 161.766C185.879 161.452 186.72 166.675 186.752 173.205C202.509 173.555 215.211 190.451 213.066 205.491C212.186 211.66 203.81 214.574 200.235 209.372C195.81 202.933 201.982 190.927 186.752 187.757L186.752 215.736C215.597 215.927 223.276 258.133 194.75 270.102C192.243 271.154 189.378 271.938 186.752 272.742C186.817 278.514 187.006 282.357 180.243 283.669C173.166 283.885 172.059 278.401 172.073 272.742C156.835 269.562 140.363 252.559 146.326 237.383C147.842 233.526 153.467 232.238 156.858 234.281C165.23 238.934 153.187 248.601 172.073 258.211C172.304 249.374 172.105 239.331 172.073 230.423C135.883 223.693 137.893 178.58 172.073 173.205C171.91 167.313 171.487 163.781 177.983 161.766ZM164.825 211.796C167.387 214.105 168.794 214.71 172.073 215.736C172.072 212.94 172.321 188.192 172.073 187.757C160.836 191.091 155.548 202.499 164.825 211.796ZM186.752 258.211C189.349 256.934 191.507 255.652 193.621 253.632C201.503 244.996 198.241 231.065 186.752 230.423C186.391 239.603 186.601 249.023 186.752 258.211Z"/><path fill="#E9D5FF" transform="matrix(0.0976562 0 0 0.0976562 7.62939e-06 9.53674e-07)" d="M241.532 144.794L291.753 144.794L291.765 278.179C291.769 297.867 295.828 301.051 274.038 301.052L252.803 301.039C247.466 301.041 240.134 302.301 241.257 294.396C245.416 265.122 271.477 275.005 277.593 270.145C281.867 266.749 280.262 256.141 280.263 251.289L280.264 197.053C280.265 181.86 284.234 177.169 267.847 175.644C251.442 174.117 240.135 161.392 241.532 144.794Z"/><path fill="#E9D5FF" transform="matrix(0.0976562 0 0 0.0976562 7.62939e-06 9.53674e-07)" d="M83.3307 144.794L118.745 144.794C116.281 182.309 82.9049 171.493 78.7991 177.141C76.8267 182.685 77.5387 197.804 77.5394 203.024L77.5339 258.727C77.5308 260.925 77.2834 265.358 77.5414 267.311C85.7658 273.829 98.5822 264.087 112.302 281.976C116.791 287.764 117.274 294.086 117.818 301.039L88.1708 301.054C63.8547 301.057 67.1902 302.861 67.2276 280.081L67.101 153.402C67.0932 143.13 75.9109 144.752 83.3307 144.794Z"/></svg>